<svg width="354" height="290" viewBox="0 0 354 290" fill="none" xmlns="http://www.w3.org/2000/svg">
<path d="M11.6045 133V136" stroke="#D2D8DF" stroke-width="2.921" stroke-linecap="round"/>
<path d="M4.86719 134.625L7.31862 137.149" stroke="#D2D8DF" stroke-width="2.921" stroke-linecap="round"/>
<path d="M2 141.343H5.46629" stroke="#D2D8DF" stroke-width="2.921" stroke-linecap="round"/>
<path d="M4.58691 148.18L7.03834 145.657" stroke="#D2D8DF" stroke-width="2.921" stroke-linecap="round"/>
<path d="M11.6045 149V146" stroke="#D2D8DF" stroke-width="2.921" stroke-linecap="round"/>
<path d="M16.6045 147L14.6045 145" stroke="#D2D8DF" stroke-width="2.921" stroke-linecap="round"/>
<path d="M20.6045 142H17.6045" stroke="#D2D8DF" stroke-width="2.921" stroke-linecap="round"/>
<path d="M18.6045 135L16.6045 137" stroke="#D2D8DF" stroke-width="2.921" stroke-linecap="round"/>
<path d="M172.604 2V4" stroke="#D2D8DF" stroke-width="2.921" stroke-linecap="round"/>
<path d="M166.604 8H168.604" stroke="#D2D8DF" stroke-width="2.921" stroke-linecap="round"/>
<path d="M172.604 14V12" stroke="#D2D8DF" stroke-width="2.921" stroke-linecap="round"/>
<path d="M177.604 8H175.604" stroke="#D2D8DF" stroke-width="2.921" stroke-linecap="round"/>
<path d="M56.6045 86V89" stroke="#D2D8DF" stroke-width="2.921" stroke-linecap="round"/>
<path d="M47.6045 95H50.6045" stroke="#D2D8DF" stroke-width="2.921" stroke-linecap="round"/>
<path d="M56.6045 103V100" stroke="#D2D8DF" stroke-width="2.921" stroke-linecap="round"/>
<path d="M64.6045 95H61.6045" stroke="#D2D8DF" stroke-width="2.921" stroke-linecap="round"/>
<path d="M271.859 195.039C274.249 195.039 276.187 196.977 276.187 199.368C276.187 201.759 274.249 203.697 271.859 203.697C269.469 203.697 267.531 201.759 267.531 199.368" stroke="#D2D8DF" stroke-width="2.921" stroke-linecap="round"/>
<path fill-rule="evenodd" clip-rule="evenodd" d="M291.667 155.763C294.237 154.962 298.176 151.819 299.088 148.437C299.915 151.426 303.381 154.962 306.508 155.229C302.988 156.476 299.622 160.179 299.088 163.088C298.724 160.123 294.069 156.195 291.667 155.763" fill="#EBECEE"/>
<path fill-rule="evenodd" clip-rule="evenodd" d="M27.8779 193.705C29.1633 193.304 31.132 191.733 31.5879 190.043C32.0013 191.536 33.734 193.304 35.2978 193.439C33.5379 194.061 31.8553 195.913 31.5879 197.368C31.4062 195.885 29.0784 193.921 27.8779 193.705" fill="#EBECEE"/>
<path fill-rule="evenodd" clip-rule="evenodd" d="M51.7304 54.5971C51.7304 56.4517 50.2278 57.9539 48.3745 57.9539C46.5204 57.9539 45.0186 56.4517 45.0186 54.5971C45.0186 52.7433 46.5204 51.2403 48.3745 51.2403C50.2278 51.2403 51.7304 52.7433 51.7304 54.5971" fill="#D1D8DF"/>
<path fill-rule="evenodd" clip-rule="evenodd" d="M275.824 63.6105C275.824 66.7092 273.312 69.2211 270.215 69.2211C267.117 69.2211 264.605 66.7092 264.605 63.6105C264.605 60.5119 267.117 58 270.215 58C273.312 58 275.824 60.5119 275.824 63.6105" fill="#EBECEE"/>
<path fill-rule="evenodd" clip-rule="evenodd" d="M353.52 48.4094C353.52 50.8678 351.528 52.86 349.071 52.86C346.614 52.86 344.622 50.8678 344.622 48.4094C344.622 45.9511 346.614 43.9589 349.071 43.9589C351.528 43.9589 353.52 45.9511 353.52 48.4094" fill="#EBECEE"/>
<path fill-rule="evenodd" clip-rule="evenodd" d="M114.449 256.267C114.449 257.817 113.193 259.073 111.644 259.073C110.095 259.073 108.84 257.817 108.84 256.267C108.84 254.718 110.095 253.462 111.644 253.462C113.193 253.462 114.449 254.718 114.449 256.267Z" stroke="#D2D8DF" stroke-width="2.921" stroke-linecap="round"/>
<path fill-rule="evenodd" clip-rule="evenodd" d="M112.78 33.0317C112.78 34.8863 111.278 36.3885 109.424 36.3885C107.571 36.3885 106.068 34.8863 106.068 33.0317C106.068 31.178 107.571 29.6749 109.424 29.6749C111.278 29.6749 112.78 31.178 112.78 33.0317Z" stroke="#D2D8DF" stroke-width="2.921" stroke-linecap="round"/>
<path fill-rule="evenodd" clip-rule="evenodd" d="M198.384 287.336C196.24 288.152 193.84 287.074 193.024 284.93C192.208 282.785 193.284 280.384 195.43 279.568C197.573 278.752 199.973 279.829 200.789 281.974C201.606 284.119 200.528 286.52 198.384 287.336Z" stroke="#D2D8DF" stroke-width="2.921" stroke-linecap="round"/>
<path fill-rule="evenodd" clip-rule="evenodd" d="M197.106 208H115.101C109.329 208 104.604 203.261 104.604 197.47V80.5275C104.604 74.7362 109.329 70 115.101 70H197.106C202.88 70 207.604 74.7362 207.604 80.5275V197.47C207.604 203.261 202.88 208 197.106 208" fill="#E0E2EE"/>
<path fill-rule="evenodd" clip-rule="evenodd" d="M190.106 213H108.101C102.329 213 97.6045 208.261 97.6045 202.47V85.5275C97.6045 79.7362 102.329 75 108.101 75H190.106C195.88 75 200.604 79.7362 200.604 85.5275V202.47C200.604 208.261 195.88 213 190.106 213" fill="#E8EBF2"/>
<path fill-rule="evenodd" clip-rule="evenodd" d="M183.297 216.947H101.123C95.3389 216.947 90.6045 212.228 90.6045 206.461V90.0025C90.6045 84.2352 95.3389 79.5186 101.123 79.5186H183.297C189.083 79.5186 193.817 84.2352 193.817 90.0025V206.461C193.817 212.228 189.083 216.947 183.297 216.947" fill="#D8DBEA"/>
<path fill-rule="evenodd" clip-rule="evenodd" d="M183.297 216.947H101.123C95.3389 216.947 90.6045 212.228 90.6045 206.461V90.0025C90.6045 84.2352 95.3389 79.5186 101.123 79.5186H183.297C189.083 79.5186 193.817 84.2352 193.817 90.0025V206.461C193.817 212.228 189.083 216.947 183.297 216.947" fill="#F1F2F7"/>
<path fill-rule="evenodd" clip-rule="evenodd" d="M171.452 115H110.757C109.023 115 107.604 113.65 107.604 112.001C107.604 110.35 109.023 109 110.757 109H171.452C173.186 109 174.604 110.35 174.604 112.001C174.604 113.65 173.186 115 171.452 115" fill="#E0E2EE"/>
<path fill-rule="evenodd" clip-rule="evenodd" d="M171.452 133H110.757C109.023 133 107.604 131.65 107.604 130.001C107.604 128.35 109.023 127 110.757 127H171.452C173.186 127 174.604 128.35 174.604 130.001C174.604 131.65 173.186 133 171.452 133" fill="#E0E2EE"/>
<path fill-rule="evenodd" clip-rule="evenodd" d="M171.452 151H110.757C109.023 151 107.604 149.65 107.604 148.001C107.604 146.352 109.023 145 110.757 145H171.452C173.186 145 174.604 146.352 174.604 148.001C174.604 149.65 173.186 151 171.452 151" fill="#E0E2EE"/>
<path fill-rule="evenodd" clip-rule="evenodd" d="M171.452 169H110.757C109.023 169 107.604 167.65 107.604 166.001C107.604 164.35 109.023 163 110.757 163H171.452C173.186 163 174.604 164.35 174.604 166.001C174.604 167.65 173.186 169 171.452 169" fill="#E0E2EE"/>
<path fill-rule="evenodd" clip-rule="evenodd" d="M142.439 187H110.77C109.029 187 107.604 185.65 107.604 184.001C107.604 182.35 109.029 181 110.77 181H142.439C144.18 181 145.604 182.35 145.604 184.001C145.604 185.65 144.18 187 142.439 187" fill="#E0E2EE"/>
<path fill-rule="evenodd" clip-rule="evenodd" d="M206.359 163.737C194.223 175.871 175.434 177.24 161.793 167.872C160.05 166.653 158.39 165.284 156.843 163.737C156.046 162.943 155.296 162.124 154.588 161.261C153.173 159.538 151.934 157.701 150.918 155.803C149.129 152.597 147.913 149.195 147.249 145.679C145.106 134.651 148.31 122.781 156.843 114.252C165.396 105.697 177.269 102.514 188.298 104.636C191.813 105.321 195.218 106.537 198.424 108.305C200.325 109.343 202.137 110.583 203.863 111.997C204.723 112.702 205.543 113.455 206.337 114.252C207.886 115.799 209.276 117.455 210.472 119.201C219.845 132.837 218.473 151.625 206.359 163.737" fill="white" fill-opacity="0.1"/>
<path fill-rule="evenodd" clip-rule="evenodd" d="M202.963 161.347C190.337 173.975 169.874 173.973 157.245 161.347C144.633 148.734 144.633 128.269 157.262 115.643C169.874 103.03 190.337 103.03 202.949 115.643C215.576 128.269 215.576 148.734 202.963 161.347ZM209.443 109.156C193.236 92.9482 166.973 92.9482 150.765 109.156C134.56 125.361 134.546 151.64 150.751 167.848C165.502 182.594 188.622 183.924 204.883 171.816C206.471 170.632 208.001 169.305 209.46 167.848C210.917 166.389 212.244 164.859 213.426 163.271C225.533 147.007 224.192 123.904 209.443 109.156Z" fill="#E0E2EE"/>
<path fill-rule="evenodd" clip-rule="evenodd" d="M273.227 228.942L272.546 229.622C268.045 234.126 260.673 234.126 256.169 229.622L214.604 188.057L231.662 171L273.227 212.565C277.73 217.069 277.73 224.438 273.227 228.942" fill="url(#paint0_linear_1_112)"/>
<path fill-rule="evenodd" clip-rule="evenodd" d="M214.322 162L226.604 174.283L217.885 183L205.604 170.717C207.225 169.509 208.784 168.154 210.275 166.668C211.761 165.182 213.116 163.621 214.322 162" fill="#E0E2EE"/>
<path fill-rule="evenodd" clip-rule="evenodd" d="M272.604 212.054L255.656 229L252.604 225.946L269.551 209L272.604 212.054Z" fill="#C8EE44"/>
<path fill-rule="evenodd" clip-rule="evenodd" d="M232.604 171.587L215.192 189L212.604 186.413L230.017 169L232.604 171.587Z" fill="url(#paint1_linear_1_112)"/>
<path fill-rule="evenodd" clip-rule="evenodd" d="M194.604 111.299L151.901 154C150.293 151.118 149.199 148.059 148.604 144.898L185.502 108C188.661 108.618 191.722 109.709 194.604 111.299" fill="white" fill-opacity="0.5"/>
<path fill-rule="evenodd" clip-rule="evenodd" d="M208.604 121.448L162.437 165C160.784 163.912 159.21 162.687 157.743 161.302C156.987 160.59 156.273 159.859 155.604 159.087L202.334 115C203.152 115.633 203.929 116.307 204.682 117.02C206.15 118.404 207.47 119.886 208.604 121.448" fill="white" fill-opacity="0.5"/>
<defs>
<linearGradient id="paint0_linear_1_112" x1="245.604" y1="140" x2="183.604" y2="202" gradientUnits="userSpaceOnUse">
<stop stop-color="#8CA62F"/>
<stop offset="1" stop-color="#29A073"/>
</linearGradient>
<linearGradient id="paint1_linear_1_112" x1="222.604" y1="159" x2="202.604" y2="179" gradientUnits="userSpaceOnUse">
<stop stop-color="#D8F37C"/>
<stop offset="1" stop-color="#29A073"/>
</linearGradient>
</defs>
</svg>
